<mxfile host="app.diagrams.net" modified="2021-09-27T08:21:41.426Z" agent="5.0 (Windows NT 10.0; Win64; x64) AppleWebKit/537.36 (KHTML, like Gecko) Chrome/94.0.4606.61 Safari/537.36" etag="EY6nvMOKxp4OxloMr2HN" version="15.3.4" type="github">
  <diagram id="C5RBs43oDa-KdzZeNtuy" name="Page-1">
    <mxGraphModel dx="868" dy="482" grid="1" gridSize="10" guides="1" tooltips="1" connect="1" arrows="1" fold="1" page="1" pageScale="1" pageWidth="827" pageHeight="1169" math="0" shadow="0">
      <root>
        <mxCell id="WIyWlLk6GJQsqaUBKTNV-0" />
        <mxCell id="WIyWlLk6GJQsqaUBKTNV-1" parent="WIyWlLk6GJQsqaUBKTNV-0" />
        <mxCell id="flukdcnShlW9ijIzd7_n-2" value="" style="edgeStyle=none;curved=1;rounded=0;orthogonalLoop=1;jettySize=auto;html=1;endArrow=open;startSize=14;endSize=14;sourcePerimeterSpacing=8;targetPerimeterSpacing=8;" edge="1" parent="WIyWlLk6GJQsqaUBKTNV-1" source="flukdcnShlW9ijIzd7_n-0" target="flukdcnShlW9ijIzd7_n-1">
          <mxGeometry relative="1" as="geometry" />
        </mxCell>
        <mxCell id="flukdcnShlW9ijIzd7_n-0" value="Start" style="ellipse;whiteSpace=wrap;html=1;hachureGap=4;pointerEvents=0;" vertex="1" parent="WIyWlLk6GJQsqaUBKTNV-1">
          <mxGeometry x="320" y="60" width="140" height="80" as="geometry" />
        </mxCell>
        <mxCell id="flukdcnShlW9ijIzd7_n-4" value="" style="edgeStyle=none;curved=1;rounded=0;orthogonalLoop=1;jettySize=auto;html=1;endArrow=open;startSize=14;endSize=14;sourcePerimeterSpacing=8;targetPerimeterSpacing=8;" edge="1" parent="WIyWlLk6GJQsqaUBKTNV-1" source="flukdcnShlW9ijIzd7_n-1" target="flukdcnShlW9ijIzd7_n-3">
          <mxGeometry relative="1" as="geometry" />
        </mxCell>
        <mxCell id="flukdcnShlW9ijIzd7_n-1" value="Input r" style="shape=parallelogram;perimeter=parallelogramPerimeter;whiteSpace=wrap;html=1;fixedSize=1;hachureGap=4;" vertex="1" parent="WIyWlLk6GJQsqaUBKTNV-1">
          <mxGeometry x="330" y="230" width="120" height="60" as="geometry" />
        </mxCell>
        <mxCell id="flukdcnShlW9ijIzd7_n-6" value="" style="edgeStyle=none;curved=1;rounded=0;orthogonalLoop=1;jettySize=auto;html=1;endArrow=open;startSize=14;endSize=14;sourcePerimeterSpacing=8;targetPerimeterSpacing=8;" edge="1" parent="WIyWlLk6GJQsqaUBKTNV-1" source="flukdcnShlW9ijIzd7_n-3" target="flukdcnShlW9ijIzd7_n-5">
          <mxGeometry relative="1" as="geometry" />
        </mxCell>
        <mxCell id="flukdcnShlW9ijIzd7_n-3" value="A=pi*r^2" style="whiteSpace=wrap;html=1;hachureGap=4;" vertex="1" parent="WIyWlLk6GJQsqaUBKTNV-1">
          <mxGeometry x="330" y="370" width="120" height="60" as="geometry" />
        </mxCell>
        <mxCell id="flukdcnShlW9ijIzd7_n-8" value="" style="edgeStyle=none;curved=1;rounded=0;orthogonalLoop=1;jettySize=auto;html=1;endArrow=open;startSize=14;endSize=14;sourcePerimeterSpacing=8;targetPerimeterSpacing=8;" edge="1" parent="WIyWlLk6GJQsqaUBKTNV-1" source="flukdcnShlW9ijIzd7_n-5" target="flukdcnShlW9ijIzd7_n-7">
          <mxGeometry relative="1" as="geometry" />
        </mxCell>
        <mxCell id="flukdcnShlW9ijIzd7_n-5" value="Print A" style="shape=parallelogram;perimeter=parallelogramPerimeter;whiteSpace=wrap;html=1;fixedSize=1;hachureGap=4;" vertex="1" parent="WIyWlLk6GJQsqaUBKTNV-1">
          <mxGeometry x="330" y="510" width="120" height="60" as="geometry" />
        </mxCell>
        <mxCell id="flukdcnShlW9ijIzd7_n-7" value="End" style="ellipse;whiteSpace=wrap;html=1;hachureGap=4;" vertex="1" parent="WIyWlLk6GJQsqaUBKTNV-1">
          <mxGeometry x="330" y="650" width="120" height="60" as="geometry" />
        </mxCell>
      </root>
    </mxGraphModel>
  </diagram>
</mxfile>
